<svg width="159" height="188" viewBox="0 0 159 188" fill="none" xmlns="http://www.w3.org/2000/svg">
<path d="M152.668 108.211C152.753 108.464 152.775 108.903 152.677 109.558C152.578 110.219 152.368 111.038 152.055 111.985C151.43 113.877 150.411 116.232 149.122 118.786C146.542 123.893 142.905 129.742 139.239 134.189C136.982 136.927 133.634 140.029 130.834 142.458C129.437 143.67 128.182 144.709 127.276 145.445C126.889 145.76 126.566 146.019 126.323 146.213L114.3 118.801C114.577 118.704 114.962 118.571 115.44 118.406C116.49 118.044 117.992 117.53 119.799 116.922C123.411 115.706 128.239 114.116 133.101 112.619C137.965 111.122 142.852 109.721 146.588 108.881C148.46 108.459 150.022 108.184 151.141 108.103C151.704 108.062 152.124 108.073 152.404 108.126C152.577 108.159 152.646 108.197 152.668 108.211Z" fill="#E4B08B" stroke="black"/>
<path d="M6.13984 108.211C6.05421 108.464 6.03273 108.903 6.13058 109.558C6.22946 110.219 6.43964 111.038 6.75253 111.985C7.37777 113.877 8.39633 116.232 9.68587 118.786C12.2651 123.893 15.9022 129.742 19.5679 134.189C21.8253 136.927 25.1738 140.029 27.9737 142.458C29.3706 143.67 30.6255 144.709 31.5309 145.445C31.9181 145.76 32.2413 146.019 32.4842 146.213L44.507 118.801C44.23 118.704 43.8456 118.571 43.3678 118.406C42.3173 118.044 40.8151 117.53 39.0088 116.922C35.3959 115.706 30.5684 114.116 25.7069 112.619C20.8426 111.122 15.9553 109.721 12.2189 108.881C10.3472 108.459 8.78519 108.184 7.66629 108.103C7.10294 108.062 6.6835 108.073 6.40379 108.126C6.23002 108.159 6.16142 108.197 6.13984 108.211Z" fill="#E4B08B" stroke="black"/>
<circle cx="81" cy="138" r="49.5" fill="#ECB187" stroke="black"/>
<path d="M79.5 13.5C82.3323 13.5 84.9671 14.8196 87.4822 17.129C90 19.4409 92.3614 22.7125 94.6327 26.5339C97.5221 31.3952 100.224 37.0678 102.906 42.6975C104.451 45.9431 105.991 49.1745 107.555 52.228C111.793 60.4998 116.027 70.7759 119.204 78.9928C120.792 83.0995 122.115 86.6882 123.04 89.2502C123.503 90.5311 123.867 91.5552 124.114 92.2588C124.17 92.416 124.219 92.5573 124.263 92.6818H34.7889L51.9563 52.2043L51.9569 52.2031L51.9592 52.198L51.9685 52.1772L52.006 52.0945C52.0391 52.0212 52.0886 51.9123 52.1537 51.7701C52.2839 51.4856 52.4765 51.068 52.7253 50.5361C53.2231 49.4724 53.9462 47.9521 54.8468 46.1276C56.6484 42.4776 59.1584 37.6136 61.9944 32.7519C64.8326 27.8864 67.9871 23.041 71.0758 19.4181C72.6206 17.6062 74.1359 16.1157 75.5741 15.0818C77.0189 14.0431 78.3377 13.5 79.5 13.5Z" fill="#0C6F13" stroke="black"/>
<rect x="28.5" y="90.5" width="104" height="24" rx="9.5" fill="#E93232" stroke="black"/>
<circle cx="80" cy="10" r="9.5" fill="#EC2828" stroke="black"/>
<path d="M75 166C77 167 78 167 80 167C82 167 83 167 85 166" stroke="black" stroke-linecap="round"/>
<path d="M87.5 148C87.5 149.162 86.7938 150.274 85.526 151.12C84.2616 151.962 82.4861 152.5 80.5 152.5C78.5139 152.5 76.7384 151.962 75.474 151.12C74.2062 150.274 73.5 149.162 73.5 148C73.5 146.838 74.2062 145.726 75.474 144.88C76.7384 144.038 78.5139 143.5 80.5 143.5C82.4861 143.5 84.2616 144.038 85.526 144.88C86.7938 145.726 87.5 146.838 87.5 148Z" fill="#ECBA96" stroke="black"/>
<circle cx="98" cy="131" r="4.5" fill="black" stroke="black"/>
<circle cx="63" cy="131" r="4.5" fill="black" stroke="black"/>
</svg>
