<svg width="117" height="184" viewBox="0 0 117 184" fill="none" xmlns="http://www.w3.org/2000/svg">
<circle cx="109.5" cy="115.5" r="7" fill="#ECB187" stroke="black"/>
<circle cx="7.5" cy="115.5" r="7" fill="#ECB187" stroke="black"/>
<path d="M110.5 127.318C110.5 142.691 102.33 156.648 91.7001 166.779C81.058 176.922 68.0504 183.136 58.5 183.136C48.9496 183.136 35.942 176.922 25.2998 166.779C14.6702 156.648 6.5 142.691 6.5 127.318C6.5 96.457 29.8137 71.5 58.5 71.5C87.1863 71.5 110.5 96.457 110.5 127.318Z" fill="#FEFEFE" stroke="black"/>
<path d="M58.4999 10.5C60.4588 10.5 62.1987 11.3425 63.9163 13.0234C65.645 14.715 67.3226 17.2291 69.1362 20.5076C70.9282 23.7473 72.8328 27.695 75.0408 32.2717L75.1116 32.4184C77.3476 37.053 79.8903 42.3177 82.9271 48.1073C88.9895 59.6648 93.7033 69.129 96.9012 75.7031C98.5001 78.9901 99.72 81.5546 100.54 83.2969C100.95 84.1681 101.26 84.8337 101.467 85.2813C101.508 85.3684 101.544 85.4473 101.577 85.5178C101.628 85.6284 101.67 85.7185 101.701 85.7876L101.729 85.8483C101.331 94.0787 95.9258 100.307 87.868 104.506C79.7688 108.726 69.0595 110.851 58.3358 110.852C47.6119 110.853 36.9307 108.73 28.8869 104.511C20.8868 100.315 15.5638 94.0897 15.2695 85.8597L15.2984 85.8017C15.3549 85.6882 15.4394 85.5187 15.5515 85.2947C15.7756 84.8468 16.1097 84.1808 16.5495 83.3092C17.429 81.5661 18.7312 79.0009 20.4214 75.713C23.8017 69.1372 28.7339 59.6711 34.9404 48.1115C38.0508 42.3184 40.5761 37.0511 42.7456 32.413C43.2436 31.3482 43.7225 30.3175 44.1852 29.3216C45.7407 25.974 47.1128 23.0208 48.413 20.4944C50.102 17.2127 51.6452 14.7014 53.2702 13.0127C54.8812 11.3387 56.5452 10.5 58.4999 10.5Z" fill="#F11818" stroke="black"/>
<circle cx="59" cy="10" r="9.5" fill="white" stroke="black"/>
<circle cx="74" cy="112" r="19.5" fill="#ECB187" stroke="black"/>
<circle cx="44" cy="112" r="19.5" fill="#ECB187" stroke="black"/>
<circle cx="59" cy="107" r="20" fill="#ECB187"/>
<circle cx="73.5" cy="120.5" r="2.5" fill="#0E0E0E"/>
<circle cx="43.5" cy="120.5" r="2.5" fill="#0E0E0E"/>
<rect x="4.5" y="83.5" width="109" height="24" rx="9.5" fill="white" stroke="black"/>
<circle cx="59" cy="130" r="4.5" fill="#D19D78" stroke="black"/>
<path d="M54 145C56 146 57 146 59 146C61 146 62 146 64 145" stroke="black" stroke-linecap="round"/>
</svg>
