<svg width="110" height="152" viewBox="0 0 110 152" fill="none" xmlns="http://www.w3.org/2000/svg">
<path d="M40 118C40 114.686 42.6863 112 46 112H64C67.3137 112 70 114.686 70 118V146C70 149.314 67.3137 152 64 152H46C42.6863 152 40 149.314 40 146V118Z" fill="#805715"/>
<g filter="url(#filter0_d_1316_19)">
<path d="M53.4336 73.9732C54.2343 72.9645 55.7657 72.9645 56.5664 73.9732L100.057 128.756C101.097 130.067 100.164 132 98.4901 132H11.5099C9.83639 132 8.90297 130.067 9.94349 128.756L53.4336 73.9732Z" fill="#69AA37"/>
</g>
<g filter="url(#filter1_d_1316_19)">
<path d="M53.3782 46.2472C54.1765 45.1411 55.8235 45.1411 56.6218 46.2472L96.0132 100.83C96.9678 102.152 96.0227 104 94.3915 104H15.6085C13.9773 104 13.0322 102.152 13.9868 100.83L53.3782 46.2472Z" fill="#69AA37"/>
</g>
<g filter="url(#filter2_d_1316_19)">
<path d="M53.2679 18C54.0377 16.6667 55.9623 16.6667 56.7321 18L87.909 72C88.6788 73.3333 87.7165 75 86.1769 75H23.8231C22.2835 75 21.3212 73.3333 22.091 72L53.2679 18Z" fill="#69AA37"/>
</g>
<g filter="url(#filter3_d_1316_19)">
<path d="M53.0979 5.8541C53.6966 4.01148 56.3034 4.01148 56.9021 5.8541L57.9187 8.98278C58.1864 9.80682 58.9543 10.3647 59.8208 10.3647H63.1105C65.0479 10.3647 65.8535 12.844 64.2861 13.9828L61.6246 15.9164C60.9237 16.4257 60.6303 17.3284 60.8981 18.1525L61.9147 21.2812C62.5134 23.1238 60.4044 24.656 58.837 23.5172L56.1756 21.5836C55.4746 21.0743 54.5254 21.0743 53.8244 21.5836L51.163 23.5172C49.5956 24.656 47.4866 23.1238 48.0853 21.2812L49.1019 18.1525C49.3697 17.3284 49.0763 16.4257 48.3754 15.9164L45.714 13.9828C44.1465 12.844 44.9521 10.3647 46.8895 10.3647H50.1792C51.0457 10.3647 51.8136 9.80682 52.0813 8.98278L53.0979 5.8541Z" fill="#FFFF12"/>
</g>
<defs>
<filter id="filter0_d_1316_19" x="5.5061" y="73.2167" width="98.9878" height="66.7833" filterUnits="userSpaceOnUse" color-interpolation-filters="sRGB">
<feFlood flood-opacity="0" result="BackgroundImageFix"/>
<feColorMatrix in="SourceAlpha" type="matrix" values="0 0 0 0 0 0 0 0 0 0 0 0 0 0 0 0 0 0 127 0" result="hardAlpha"/>
<feOffset dy="4"/>
<feGaussianBlur stdDeviation="2"/>
<feComposite in2="hardAlpha" operator="out"/>
<feColorMatrix type="matrix" values="0 0 0 0 0 0 0 0 0 0 0 0 0 0 0 0 0 0 0.25 0"/>
<feBlend mode="normal" in2="BackgroundImageFix" result="effect1_dropShadow_1316_19"/>
<feBlend mode="normal" in="SourceGraphic" in2="effect1_dropShadow_1316_19" result="shape"/>
</filter>
<filter id="filter1_d_1316_19" x="9.60498" y="45.4176" width="90.79" height="66.5824" filterUnits="userSpaceOnUse" color-interpolation-filters="sRGB">
<feFlood flood-opacity="0" result="BackgroundImageFix"/>
<feColorMatrix in="SourceAlpha" type="matrix" values="0 0 0 0 0 0 0 0 0 0 0 0 0 0 0 0 0 0 127 0" result="hardAlpha"/>
<feOffset dy="4"/>
<feGaussianBlur stdDeviation="2"/>
<feComposite in2="hardAlpha" operator="out"/>
<feColorMatrix type="matrix" values="0 0 0 0 0 0 0 0 0 0 0 0 0 0 0 0 0 0 0.25 0"/>
<feBlend mode="normal" in2="BackgroundImageFix" result="effect1_dropShadow_1316_19"/>
<feBlend mode="normal" in="SourceGraphic" in2="effect1_dropShadow_1316_19" result="shape"/>
</filter>
<filter id="filter2_d_1316_19" x="17.8201" y="17" width="74.3599" height="66" filterUnits="userSpaceOnUse" color-interpolation-filters="sRGB">
<feFlood flood-opacity="0" result="BackgroundImageFix"/>
<feColorMatrix in="SourceAlpha" type="matrix" values="0 0 0 0 0 0 0 0 0 0 0 0 0 0 0 0 0 0 127 0" result="hardAlpha"/>
<feOffset dy="4"/>
<feGaussianBlur stdDeviation="2"/>
<feComposite in2="hardAlpha" operator="out"/>
<feColorMatrix type="matrix" values="0 0 0 0 0 0 0 0 0 0 0 0 0 0 0 0 0 0 0.25 0"/>
<feBlend mode="normal" in2="BackgroundImageFix" result="effect1_dropShadow_1316_19"/>
<feBlend mode="normal" in="SourceGraphic" in2="effect1_dropShadow_1316_19" result="shape"/>
</filter>
<filter id="filter3_d_1316_19" x="40.8857" y="4.47211" width="28.2285" height="27.4362" filterUnits="userSpaceOnUse" color-interpolation-filters="sRGB">
<feFlood flood-opacity="0" result="BackgroundImageFix"/>
<feColorMatrix in="SourceAlpha" type="matrix" values="0 0 0 0 0 0 0 0 0 0 0 0 0 0 0 0 0 0 127 0" result="hardAlpha"/>
<feOffset dy="4"/>
<feGaussianBlur stdDeviation="2"/>
<feComposite in2="hardAlpha" operator="out"/>
<feColorMatrix type="matrix" values="0 0 0 0 0 0 0 0 0 0 0 0 0 0 0 0 0 0 0.25 0"/>
<feBlend mode="normal" in2="BackgroundImageFix" result="effect1_dropShadow_1316_19"/>
<feBlend mode="normal" in="SourceGraphic" in2="effect1_dropShadow_1316_19" result="shape"/>
</filter>
</defs>
</svg>
