<svg width="600" height="600" viewBox="0 0 600 600" fill="none" xmlns="http://www.w3.org/2000/svg">
<mask id="mask0_1332_3" style="mask-type:alpha" maskUnits="userSpaceOnUse" x="0" y="0" width="600" height="600">
<rect width="600" height="600" fill="#D9D9D9"/>
</mask>
<g mask="url(#mask0_1332_3)">
<circle cx="300" cy="300" r="300" fill="#D03B3B"/>
<path d="M182.781 23.8486C219.045 8.45512 257.987 0.355245 297.382 0.0114552C336.777 -0.332335 375.854 7.08666 412.382 21.8449L300 300L182.781 23.8486Z" fill="#28543C"/>
<path d="M297.531 189.266V180.328H301.078V189.266H307.391V179.047H311V194.156H288.312V179.375H291.922V189.266H297.531ZM286.938 175.594V170.797H311V175.594H286.938ZM303.516 162.734C306.37 162.484 307.797 161.016 307.797 158.328C307.797 157.495 307.703 156.656 307.516 155.812C307.318 154.969 307.005 154.036 306.578 153.016L309.562 151.859C310.74 154.401 311.323 156.75 311.312 158.906C311.312 161.552 310.542 163.63 309 165.141C307.458 166.651 305.318 167.406 302.578 167.406C299.849 167.406 297.724 166.667 296.203 165.188C294.672 163.708 293.906 161.635 293.906 158.969C293.906 153.958 296.745 151.453 302.422 151.453H303.516V162.734ZM300.734 155.859C298.401 155.995 297.234 157.021 297.234 158.938C297.234 160 297.526 160.839 298.109 161.453C298.682 162.057 299.557 162.453 300.734 162.641V155.859ZM286.844 148.172V143.359H311V148.172H286.844ZM311 131.656V137L301.688 143.047L294.234 137.734V132.641L301.531 138.047L311 131.656ZM310.359 119.016C310.953 120.464 311.25 121.849 311.25 123.172C311.25 126.859 309.49 128.703 305.969 128.703H297.594V131.469H294.234V128.391L289.438 127.469V123.938H294.234V119.359H297.594V123.938H305.297C306.151 123.938 306.76 123.781 307.125 123.469C307.49 123.146 307.672 122.599 307.672 121.828C307.672 121.172 307.542 120.469 307.281 119.719L310.359 119.016ZM296.562 111.75C294.833 110.698 293.969 109.224 293.969 107.328C293.969 106.922 293.995 106.578 294.047 106.297C294.089 106.005 294.172 105.635 294.297 105.188L298.484 105.734C298.161 106.63 298.005 107.422 298.016 108.109C298.016 108.859 298.151 109.495 298.422 110.016C298.682 110.536 299.099 110.974 299.672 111.328H311V116.141H294.234V112.328L296.562 111.75ZM293.844 95.7812C293.844 93.0208 294.599 90.9062 296.109 89.4375C297.609 87.9688 299.766 87.2344 302.578 87.2344C305.391 87.2344 307.557 87.9688 309.078 89.4375C310.599 90.9062 311.359 93.0208 311.359 95.7812C311.359 98.5104 310.604 100.615 309.094 102.094C307.573 103.573 305.401 104.312 302.578 104.312C299.766 104.312 297.609 103.578 296.109 102.109C294.599 100.641 293.844 98.5312 293.844 95.7812ZM297.438 95.7812C297.427 98.25 299.141 99.4844 302.578 99.4844C306.016 99.4844 307.734 98.25 307.734 95.7812C307.734 93.3021 306.016 92.0625 302.578 92.0625C299.141 92.0625 297.427 93.3021 297.438 95.7812ZM296.562 79.4375C294.833 77.9583 293.969 76.0156 293.969 73.6094C293.969 71.8594 294.484 70.5104 295.516 69.5625C296.536 68.6146 297.984 68.1406 299.859 68.1406H311V72.9375H300.125C299.146 72.9375 298.438 73.1302 298 73.5156C297.562 73.901 297.344 74.5208 297.344 75.375C297.344 76.1458 297.521 76.8646 297.875 77.5312C298.219 78.1979 298.688 78.7344 299.281 79.1406H311V83.9531H294.234V79.9531L296.562 79.4375ZM287.484 63.875V59.0781H291.859V63.875H287.484ZM294.422 63.875V59.0781H311V63.875H294.422ZM286.844 54.4531V49.6406H311V54.4531H286.844ZM311 37.9375V43.2812L301.688 49.3281L294.234 44.0156V38.9219L301.531 44.3281L311 37.9375ZM293.906 29.3906C293.906 27.026 294.49 25.2135 295.656 23.9531C296.823 22.6927 298.516 22.0625 300.734 22.0625H311V26.0312L309.016 26.5781C309.745 27.2656 310.302 28.0417 310.688 28.9062C311.062 29.7604 311.25 30.6771 311.25 31.6562C311.25 33.3854 310.802 34.7604 309.906 35.7812C309.01 36.7917 307.807 37.2969 306.297 37.2969C304.547 37.2969 303.182 36.5625 302.203 35.0938C301.224 33.6146 300.734 31.5521 300.734 28.9062V26.8594H300.312C298.375 26.9219 297.406 28.0208 297.406 30.1562C297.406 30.8854 297.516 31.7292 297.734 32.6875C297.943 33.6458 298.214 34.5104 298.547 35.2812L295.312 36.2969C294.865 35.1927 294.521 34.0312 294.281 32.8125C294.031 31.5938 293.906 30.4531 293.906 29.3906ZM303.359 28.5C303.359 29.8646 303.594 30.9271 304.062 31.6875C304.531 32.4375 305.182 32.8125 306.016 32.8125C306.703 32.8125 307.229 32.6042 307.594 32.1875C307.948 31.7708 308.125 31.1823 308.125 30.4219C308.125 29.7344 307.974 29.0781 307.672 28.4531C307.37 27.8177 306.964 27.2865 306.453 26.8594H303.359V28.5Z" fill="white"/>
<path d="M23.8486 417.219C8.45517 380.955 0.355292 342.013 0.0115019 302.618C-0.332288 263.223 7.08671 224.146 21.845 187.618L300 300L23.8486 417.219Z" fill="#28543C"/>
<path d="M149.063 302.313H140.672V298.625H149.063V289H153.953V311.688H139.359V308.016H149.063V302.313ZM136.516 312.516H131.719V308.141H136.516V312.516ZM136.516 305.578H131.719V289H136.516V305.578ZM115.375 305.766V302.891L123.156 292.547H115.094V289H128.5V291.969L120.719 302.219H128.141V305.766H115.375ZM107.859 289.094L114.203 305.766H109.625L107.734 300.609C107.266 299.328 106.672 297.313 105.953 294.563L105.531 292.969L105.047 294.828C104.432 297.37 103.891 299.323 103.422 300.688L101.594 305.766H96.9844L106.172 281.672H110.547L107.859 289.094ZM94.6563 313.156H89.8438V289H94.6563V313.156ZM78.1406 289H83.4844L89.5313 298.313L84.2188 305.766H79.125L84.5313 298.469L78.1406 289ZM69.5938 306.094C67.2292 306.094 65.4167 305.51 64.1563 304.344C62.8958 303.177 62.2656 301.484 62.2656 299.266V289H66.2344L66.7813 290.984C67.4688 290.255 68.2448 289.698 69.1094 289.313C69.9636 288.938 70.8802 288.75 71.8594 288.75C73.5886 288.75 74.9636 289.198 75.9844 290.094C76.9948 290.99 77.5 292.193 77.5 293.703C77.5 295.453 76.7656 296.818 75.2969 297.797C73.8177 298.776 71.7552 299.266 69.1094 299.266H67.0625V299.688C67.125 301.625 68.224 302.594 70.3594 302.594C71.0886 302.594 71.9323 302.484 72.8906 302.266C73.849 302.057 74.7136 301.786 75.4844 301.453L76.5 304.688C75.3958 305.135 74.2344 305.479 73.0156 305.719C71.7969 305.969 70.6563 306.094 69.5938 306.094ZM68.7031 296.641C70.0677 296.641 71.1302 296.406 71.8906 295.938C72.6406 295.469 73.0156 294.818 73.0156 293.984C73.0156 293.297 72.8073 292.771 72.3906 292.406C71.974 292.052 71.3854 291.875 70.625 291.875C69.9375 291.875 69.2813 292.026 68.6563 292.328C68.0208 292.63 67.4896 293.036 67.0625 293.547V296.641H68.7031Z" fill="white"/>
<path d="M417.22 576.151C380.955 591.545 342.013 599.645 302.618 599.988C263.223 600.332 224.146 592.913 187.618 578.155L300 300L417.22 576.151Z" fill="#28543C"/>
<path d="M311.688 447.453V452.359H289V447.453H298.703V438.078H289V433.188H311.688V438.078H302.406V447.453H311.688ZM312.516 457.281V462.078H308.141V457.281H312.516ZM305.578 457.281V462.078H289V457.281H305.578ZM306.094 472.594C306.094 474.177 305.729 476.026 305 478.141L301.86 477.141C302.224 476.036 302.474 475.156 302.61 474.5C302.755 473.854 302.828 473.276 302.828 472.766C302.828 471.974 302.677 471.349 302.375 470.891C302.073 470.432 301.667 470.203 301.156 470.203C300.667 470.203 300.281 470.422 300 470.859C299.729 471.297 299.464 471.953 299.203 472.828C298.86 474.047 298.537 475.01 298.235 475.719C297.943 476.438 297.448 477.073 296.75 477.625C296.063 478.177 295.12 478.453 293.922 478.453C292.276 478.453 290.99 477.839 290.063 476.609C289.146 475.391 288.688 473.714 288.688 471.578C288.688 469.339 289.136 467.193 290.031 465.141L293.188 466.297C292.74 467.516 292.422 468.5 292.235 469.25C292.058 470.01 291.969 470.688 291.969 471.281C291.969 472.115 292.125 472.745 292.438 473.172C292.75 473.599 293.193 473.812 293.766 473.812C294.339 473.812 294.761 473.568 295.031 473.078C295.302 472.589 295.594 471.797 295.906 470.703C296.209 469.682 296.516 468.828 296.828 468.141C297.151 467.464 297.656 466.88 298.344 466.391C299.031 465.901 299.938 465.656 301.063 465.656C302.646 465.656 303.88 466.266 304.766 467.484C305.651 468.714 306.094 470.417 306.094 472.594ZM289.641 492.141C289.047 490.693 288.75 489.307 288.75 487.984C288.75 484.297 290.511 482.453 294.031 482.453H302.406V479.688H305.766V482.766L310.563 483.688V487.219H305.766V491.797H302.406V487.219H294.703C293.849 487.219 293.24 487.375 292.875 487.688C292.511 488.01 292.328 488.557 292.328 489.328C292.328 489.984 292.459 490.688 292.719 491.438L289.641 492.141ZM306.156 502.312C306.156 505.073 305.401 507.188 303.891 508.656C302.391 510.125 300.235 510.859 297.422 510.859C294.61 510.859 292.443 510.125 290.922 508.656C289.401 507.188 288.641 505.073 288.641 502.312C288.641 499.583 289.396 497.479 290.906 496C292.427 494.521 294.599 493.781 297.422 493.781C300.235 493.781 302.391 494.516 303.891 495.984C305.401 497.453 306.156 499.562 306.156 502.312ZM302.563 502.312C302.573 499.844 300.86 498.609 297.422 498.609C293.985 498.609 292.266 499.844 292.266 502.312C292.266 504.792 293.985 506.031 297.422 506.031C300.86 506.031 302.573 504.792 302.563 502.312ZM303.438 518.531C305.167 519.583 306.031 521.057 306.031 522.953C306.031 523.359 306.005 523.703 305.953 523.984C305.912 524.276 305.828 524.646 305.703 525.094L301.516 524.547C301.839 523.651 301.995 522.859 301.985 522.172C301.985 521.422 301.849 520.786 301.578 520.266C301.318 519.745 300.901 519.307 300.328 518.953H289V514.141H305.766V517.953L303.438 518.531ZM312.516 527.5V532.297H308.141V527.5H312.516ZM305.578 527.5V532.297H289V527.5H305.578ZM306.094 543.266C306.094 545.63 305.511 547.443 304.344 548.703C303.177 549.964 301.485 550.594 299.266 550.594H289L289 546.625L290.985 546.078C290.255 545.391 289.698 544.615 289.313 543.75C288.938 542.896 288.75 541.979 288.75 541C288.75 539.271 289.198 537.896 290.094 536.875C290.99 535.865 292.193 535.359 293.703 535.359C295.453 535.359 296.818 536.094 297.797 537.562C298.776 539.042 299.266 541.104 299.266 543.75V545.797H299.688C301.625 545.734 302.594 544.635 302.594 542.5C302.594 541.771 302.485 540.927 302.266 539.969C302.058 539.01 301.787 538.146 301.453 537.375L304.688 536.359C305.136 537.464 305.479 538.625 305.719 539.844C305.969 541.062 306.094 542.203 306.094 543.266ZM296.641 544.156C296.641 542.792 296.406 541.729 295.938 540.969C295.469 540.219 294.818 539.844 293.985 539.844C293.297 539.844 292.771 540.052 292.406 540.469C292.052 540.885 291.875 541.474 291.875 542.234C291.875 542.922 292.026 543.578 292.328 544.203C292.63 544.839 293.037 545.37 293.547 545.797H296.641V544.156Z" fill="white"/>
<path d="M576.151 182.781C591.545 219.045 599.645 257.987 599.989 297.382C600.332 336.777 592.913 375.854 578.155 412.382L300 300L576.151 182.781Z" fill="#28543C"/>
<path d="M435.281 287.984C438.802 287.984 441.495 288.984 443.359 290.984C445.224 292.974 446.156 295.828 446.156 299.547C446.156 303.349 445.229 306.255 443.375 308.266C441.521 310.276 438.823 311.281 435.281 311.281C431.719 311.281 429.016 310.281 427.172 308.281C425.328 306.271 424.406 303.359 424.406 299.547C424.406 295.839 425.339 292.984 427.203 290.984C429.068 288.984 431.76 287.984 435.281 287.984ZM435.281 291.828C433.344 291.828 431.885 292.479 430.906 293.781C429.938 295.083 429.453 297.005 429.453 299.547C429.453 302.13 429.943 304.094 430.922 305.438C431.911 306.781 433.365 307.453 435.281 307.453C437.198 307.453 438.646 306.781 439.625 305.438C440.615 304.094 441.109 302.13 441.109 299.547C441.109 297.026 440.615 295.109 439.625 293.797C438.646 292.484 437.198 291.828 435.281 291.828ZM454.484 295.828C455.724 294.589 457.229 293.969 459 293.969C461.323 293.969 463.13 294.698 464.422 296.156C465.714 297.604 466.359 299.641 466.359 302.266C466.359 305.036 465.547 307.224 463.922 308.828C462.297 310.422 460.068 311.219 457.234 311.219C455.786 311.219 454.375 311.125 453 310.938C451.635 310.74 450.531 310.484 449.688 310.172V286.938H454.484V295.828ZM458 297.375C457.125 297.375 456.37 297.62 455.734 298.109C455.109 298.599 454.693 299.25 454.484 300.062V307.547C455.193 307.828 456.036 307.964 457.016 307.953C458.464 307.953 459.568 307.484 460.328 306.547C461.099 305.609 461.484 304.234 461.484 302.422C461.484 300.755 461.188 299.5 460.594 298.656C460 297.802 459.135 297.375 458 297.375ZM473.594 310.906L467.25 294.234H471.828L473.719 299.391C474.188 300.672 474.781 302.688 475.5 305.438L475.922 307.031L476.406 305.172C477.021 302.63 477.562 300.677 478.031 299.312L479.859 294.234H484.469L475.281 318.328H470.906L473.594 310.906ZM493.984 293.969C495.693 293.969 497.312 294.365 498.844 295.156L497.781 298.328C496.646 297.734 495.547 297.438 494.484 297.438C493.099 297.438 492.026 297.885 491.266 298.781C490.516 299.677 490.141 300.943 490.141 302.578C490.141 304.203 490.526 305.458 491.297 306.344C492.078 307.229 493.198 307.672 494.656 307.672C495.854 307.672 497.026 307.417 498.172 306.906L498.938 310.172C498.167 310.516 497.333 310.781 496.438 310.969C495.542 311.156 494.688 311.25 493.875 311.25C491.104 311.25 488.984 310.505 487.516 309.016C486.047 307.526 485.312 305.38 485.312 302.578C485.312 299.849 486.068 297.734 487.578 296.234C489.089 294.724 491.224 293.969 493.984 293.969ZM513.547 294.234V297.109L505.766 307.453H513.828V311H500.422V308.031L508.203 297.781H500.781V294.234H513.547ZM523.297 293.906C525.661 293.906 527.474 294.49 528.734 295.656C529.995 296.823 530.625 298.516 530.625 300.734V311H526.656L526.109 309.016C525.422 309.745 524.646 310.302 523.781 310.688C522.927 311.062 522.01 311.25 521.031 311.25C519.302 311.25 517.927 310.802 516.906 309.906C515.896 309.01 515.391 307.807 515.391 306.297C515.391 304.547 516.125 303.182 517.594 302.203C519.073 301.224 521.135 300.734 523.781 300.734H525.828V300.312C525.766 298.375 524.667 297.406 522.531 297.406C521.802 297.406 520.958 297.516 520 297.734C519.042 297.943 518.177 298.214 517.406 298.547L516.391 295.312C517.495 294.865 518.656 294.521 519.875 294.281C521.094 294.031 522.234 293.906 523.297 293.906ZM524.188 303.359C522.823 303.359 521.76 303.594 521 304.062C520.25 304.531 519.875 305.182 519.875 306.016C519.875 306.703 520.083 307.229 520.5 307.594C520.917 307.948 521.505 308.125 522.266 308.125C522.953 308.125 523.609 307.974 524.234 307.672C524.87 307.37 525.401 306.964 525.828 306.453V303.359H524.188ZM534.812 287.484H539.609V291.859H534.812V287.484ZM531.516 315.484C532.641 314.078 533.469 312.755 534 311.516C534.542 310.276 534.812 309.047 534.812 307.828V294.328H539.609V307.828C539.609 309.516 539.125 311.156 538.156 312.75C537.198 314.354 535.792 315.87 533.938 317.297L531.516 315.484ZM547.516 303.516C547.766 306.37 549.234 307.797 551.922 307.797C552.755 307.797 553.594 307.703 554.438 307.516C555.281 307.318 556.214 307.005 557.234 306.578L558.391 309.562C555.849 310.74 553.5 311.323 551.344 311.312C548.698 311.312 546.62 310.542 545.109 309C543.599 307.458 542.844 305.318 542.844 302.578C542.844 299.849 543.583 297.724 545.062 296.203C546.542 294.672 548.615 293.906 551.281 293.906C556.292 293.906 558.797 296.745 558.797 302.422V303.516H547.516ZM554.391 300.734C554.255 298.401 553.229 297.234 551.312 297.234C550.25 297.234 549.411 297.526 548.797 298.109C548.193 298.682 547.797 299.557 547.609 300.734H554.391Z" fill="white"/>
<path d="M404.353 178.72C405.672 177.387 407.454 176.187 409.701 175.119L411.656 178.466C409.572 179.461 408.047 180.44 407.082 181.405C406.302 182.186 405.841 182.956 405.701 183.714C405.561 184.473 405.757 185.117 406.287 185.648C406.861 186.222 407.524 186.473 408.276 186.399C409.034 186.318 410.11 185.869 411.502 185.051C413.549 183.843 415.288 183.269 416.717 183.328C418.138 183.379 419.497 184.053 420.794 185.349C422.363 186.918 423.036 188.653 422.815 190.553C422.595 192.439 421.504 194.361 419.545 196.321C417.947 197.919 415.873 199.271 413.325 200.376L411.568 196.984C412.938 196.335 414.017 195.765 414.805 195.271C415.586 194.77 416.264 194.233 416.838 193.658C417.671 192.826 418.135 192.008 418.23 191.205C418.326 190.388 418.057 189.662 417.424 189.029C417.019 188.624 416.584 188.38 416.12 188.299C415.656 188.218 415.089 188.299 414.419 188.543C413.741 188.778 412.864 189.22 411.789 189.868C410.007 190.958 408.419 191.47 407.027 191.404C405.635 191.338 404.342 190.708 403.149 189.515C401.624 187.99 400.969 186.289 401.182 184.41C401.396 182.517 402.453 180.621 404.353 178.72ZM422.451 169.086C424.093 167.443 425.88 166.674 427.809 166.777C429.739 166.88 431.64 167.867 433.51 169.738C434.822 171.049 435.691 172.441 436.118 173.914C436.545 175.387 436.534 176.857 436.085 178.323C435.628 179.781 434.744 181.166 433.433 182.477C432.814 183.096 432.07 183.677 431.201 184.223L436.449 189.471L433.057 192.862L416.021 175.826L418.617 173.229L420.539 174.113C420.495 173.067 420.624 172.15 420.926 171.362C421.228 170.559 421.736 169.8 422.451 169.086ZM430.925 180.367C431.949 179.343 432.402 178.227 432.284 177.019C432.174 175.804 431.478 174.555 430.196 173.273C427.809 170.887 425.791 170.526 424.141 172.191C423.537 172.795 423.18 173.476 423.07 174.235C422.966 174.986 423.114 175.752 423.512 176.533L428.892 181.913C429.43 181.582 429.824 181.32 430.074 181.129C430.325 180.937 430.608 180.683 430.925 180.367ZM435.013 156.281C436.965 154.329 438.994 153.368 441.101 153.397C443.2 153.419 445.244 154.425 447.233 156.413C449.222 158.402 450.234 160.453 450.271 162.567C450.308 164.681 449.35 166.714 447.399 168.666C445.469 170.596 443.447 171.55 441.333 171.528C439.212 171.498 437.153 170.486 435.157 168.489C433.168 166.501 432.163 164.457 432.14 162.357C432.111 160.251 433.069 158.225 435.013 156.281ZM437.554 158.822C435.801 160.56 436.14 162.645 438.571 165.075C441.001 167.506 443.09 167.849 444.835 166.103C446.588 164.35 446.249 162.258 443.819 159.827C441.388 157.397 439.3 157.062 437.554 158.822ZM448.404 146.735C447.925 144.768 448.356 143.115 449.697 141.774C449.984 141.487 450.245 141.262 450.481 141.1C450.717 140.923 451.037 140.721 451.442 140.492L454.017 143.84C453.155 144.245 452.485 144.695 452.006 145.188C451.475 145.718 451.122 146.263 450.945 146.823C450.761 147.376 450.746 147.98 450.901 148.635L458.911 156.645L455.508 160.048L443.653 148.193L446.349 145.497L448.404 146.735ZM471.849 142.802C471.245 144.245 470.475 145.435 469.54 146.37C466.932 148.978 464.384 149.037 461.894 146.547L455.972 140.625L454.017 142.581L451.641 140.205L453.818 138.029L451.078 133.985L453.575 131.488L456.967 134.88L460.204 131.643L462.579 134.018L459.342 137.255L464.789 142.702C465.393 143.306 465.934 143.626 466.413 143.663C466.899 143.693 467.415 143.435 467.96 142.89C468.424 142.426 468.829 141.837 469.175 141.122L471.849 142.802Z" fill="white"/>
<path d="M418.683 402.155C420.643 404.114 421.707 406.047 421.877 407.955C422.053 409.856 421.317 411.631 419.667 413.281C418.068 414.879 416.297 415.597 414.352 415.435C412.415 415.266 410.504 414.238 408.618 412.353L406.464 410.198L400.553 416.109L397.139 412.695L413.181 396.653L418.683 402.155ZM410.938 409.612C411.874 410.548 412.776 411.038 413.645 411.082C414.529 411.126 415.398 410.721 416.253 409.867C417.115 409.005 417.52 408.143 417.468 407.281C417.431 406.419 416.938 405.513 415.988 404.563L414.043 402.619L408.994 407.668L410.938 409.612ZM428.053 419.346C430.005 421.298 430.966 423.327 430.936 425.434C430.914 427.533 429.909 429.577 427.92 431.566C425.931 433.555 423.88 434.567 421.766 434.604C419.652 434.641 417.619 433.684 415.667 431.732C413.737 429.802 412.784 427.78 412.806 425.666C412.835 423.545 413.848 421.486 415.844 419.49C417.833 417.501 419.877 416.496 421.976 416.474C424.083 416.444 426.108 417.402 428.053 419.346ZM425.511 421.887C423.773 420.134 421.689 420.473 419.258 422.904C416.827 425.335 416.485 427.423 418.23 429.168C419.984 430.921 422.075 430.583 424.506 428.152C426.937 425.721 427.272 423.633 425.511 421.887ZM441.377 422.904L444.769 426.296L427.754 443.311L424.362 439.919L441.377 422.904ZM447.299 438.681C448.419 439.801 449.468 441.366 450.448 443.377L447.52 444.89C446.997 443.852 446.552 443.053 446.183 442.493C445.83 441.933 445.473 441.473 445.112 441.112C444.552 440.552 444.003 440.217 443.465 440.106C442.928 439.996 442.478 440.121 442.117 440.482C441.771 440.828 441.653 441.256 441.764 441.764C441.882 442.265 442.158 442.916 442.593 443.719C443.211 444.824 443.664 445.734 443.951 446.448C444.253 447.163 444.353 447.962 444.25 448.846C444.154 449.722 443.683 450.584 442.836 451.431C441.672 452.595 440.328 453.07 438.803 452.856C437.293 452.643 435.783 451.781 434.273 450.271C432.689 448.687 431.489 446.853 430.671 444.769L433.721 443.355C434.266 444.533 434.737 445.454 435.135 446.117C435.547 446.78 435.963 447.321 436.383 447.741C436.973 448.33 437.529 448.665 438.052 448.746C438.575 448.827 439.039 448.665 439.444 448.26C439.849 447.855 439.974 447.384 439.819 446.846C439.665 446.308 439.311 445.542 438.759 444.548C438.25 443.613 437.864 442.791 437.599 442.084C437.348 441.377 437.293 440.607 437.433 439.775C437.573 438.943 438.041 438.129 438.836 437.333C439.956 436.214 441.259 435.772 442.747 436.007C444.242 436.251 445.76 437.142 447.299 438.681ZM458.734 440.129L462.137 443.532L445.056 460.613L441.653 457.21L458.734 440.129ZM453.332 468.888L449.553 465.109L451.862 454.249L460.889 452.735L464.491 456.337L455.508 457.674L453.332 468.888ZM471.551 453.851L474.943 457.243L471.849 460.336L468.457 456.944L471.551 453.851ZM466.645 458.756L470.037 462.148L458.315 473.871L454.923 470.479L466.645 458.756Z" fill="white"/>
<path d="M218.297 383.383C220.064 384.812 221.302 385.792 222.009 386.322C221.736 385.873 221.18 384.904 220.34 383.416C219.508 381.936 218.819 380.665 218.274 379.605L214.186 371.296L217.103 368.379L225.379 372.5C227.11 373.362 229.028 374.419 231.135 375.671L232.118 376.213L227.489 370.39L221.556 362.888L224.815 359.629L238.803 377.726L234.891 381.638L225.566 376.975C224.211 376.253 223.139 375.668 222.351 375.218C221.04 374.452 220.046 373.907 219.368 373.583C219.685 374.268 220.226 375.266 220.992 376.577C221.442 377.365 222.031 378.434 222.76 379.781L227.423 389.106L223.534 392.995L205.403 379.041L208.662 375.782L216.197 381.682L218.297 383.383ZM210.574 398.045C208.902 399.717 207.207 400.586 205.491 400.652C203.775 400.718 202.132 399.967 200.564 398.398L193.305 391.139L196.111 388.333L197.901 389.349C197.871 388.348 198.026 387.405 198.365 386.521C198.704 385.652 199.219 384.871 199.912 384.179C201.134 382.956 202.423 382.301 203.779 382.212C205.127 382.131 206.335 382.625 207.403 383.693C208.64 384.93 209.086 386.414 208.74 388.145C208.386 389.883 207.274 391.688 205.403 393.559L203.955 395.006L204.254 395.305C205.668 396.63 207.13 396.538 208.64 395.028C209.156 394.513 209.675 393.839 210.198 393.007C210.728 392.182 211.148 391.379 211.457 390.598L214.463 392.167C213.999 393.264 213.42 394.329 212.728 395.36C212.043 396.398 211.325 397.293 210.574 398.045ZM203.259 391.99C204.224 391.025 204.81 390.108 205.016 389.239C205.215 388.377 205.02 387.652 204.431 387.062C203.944 386.576 203.425 386.352 202.873 386.388C202.328 386.433 201.786 386.724 201.249 387.261C200.762 387.747 200.405 388.318 200.177 388.974C199.941 389.637 199.853 390.3 199.912 390.963L202.099 393.15L203.259 391.99ZM183.471 401.879C184.075 400.435 184.845 399.245 185.781 398.31C188.388 395.702 190.937 395.643 193.426 398.133L199.348 404.055L201.304 402.099L203.679 404.475L201.503 406.651L204.243 410.695L201.746 413.192L198.354 409.8L195.117 413.038L192.741 410.662L195.978 407.425L190.532 401.978C189.928 401.374 189.386 401.054 188.907 401.017C188.421 400.987 187.906 401.245 187.361 401.79C186.897 402.254 186.491 402.843 186.145 403.558L183.471 401.879ZM183.847 411.181C181.652 409.34 179.605 409.369 177.704 411.27C177.115 411.859 176.588 412.518 176.124 413.247C175.668 413.984 175.229 414.864 174.809 415.888L171.882 414.595C172.846 411.966 174.095 409.892 175.627 408.375C177.498 406.504 179.512 405.58 181.671 405.602C183.829 405.624 185.876 406.604 187.814 408.541C189.743 410.471 190.723 412.496 190.752 414.617C190.789 416.746 189.865 418.753 187.979 420.639C184.436 424.182 180.658 423.946 176.643 419.932L175.87 419.158L183.847 411.181ZM180.952 418.009C182.698 419.564 184.249 419.663 185.604 418.308C186.355 417.556 186.742 416.757 186.764 415.91C186.786 415.078 186.447 414.179 185.747 413.214L180.952 418.009ZM175.251 429.61C175.487 431.82 174.784 433.746 173.141 435.389C172.294 436.236 171.392 436.785 170.434 437.035C169.477 437.3 168.515 437.252 167.551 436.891C167.683 438.144 167.576 439.274 167.23 440.283C166.891 441.3 166.298 442.231 165.451 443.079C164.184 444.345 162.844 444.957 161.43 444.913C160.023 444.876 158.656 444.194 157.331 442.869L149.453 434.991L152.845 431.599L160.535 439.289C161.227 439.981 161.864 440.346 162.446 440.383C163.028 440.42 163.621 440.136 164.225 439.532C164.77 438.987 165.146 438.368 165.352 437.676C165.565 436.991 165.606 436.28 165.473 435.543C165.444 435.514 165.367 435.451 165.241 435.356C165.124 435.267 164.995 435.153 164.855 435.013L157.143 427.301L160.535 423.909L168.225 431.599C168.917 432.291 169.554 432.656 170.136 432.693C170.718 432.73 171.311 432.446 171.915 431.842C172.445 431.312 172.813 430.693 173.02 429.986C173.233 429.286 173.266 428.59 173.119 427.898L164.833 419.611L168.225 416.22L180.08 428.075L177.251 430.903L175.251 429.61ZM154.027 454.591C152.355 456.263 150.661 457.132 148.945 457.199C147.229 457.265 145.586 456.514 144.017 454.945L136.758 447.686L139.565 444.879L141.354 445.896C141.325 444.894 141.48 443.951 141.818 443.067C142.157 442.198 142.673 441.418 143.365 440.725C144.588 439.502 145.877 438.847 147.232 438.759C148.58 438.678 149.788 439.171 150.856 440.239C152.094 441.477 152.539 442.961 152.193 444.692C151.84 446.43 150.727 448.235 148.856 450.105L147.409 451.553L147.707 451.851C149.122 453.177 150.584 453.085 152.094 451.575C152.609 451.059 153.129 450.385 153.651 449.553C154.182 448.728 154.602 447.925 154.911 447.144L157.916 448.713C157.452 449.811 156.874 450.875 156.182 451.906C155.497 452.945 154.778 453.84 154.027 454.591ZM146.713 448.537C147.678 447.572 148.263 446.655 148.47 445.785C148.669 444.924 148.473 444.198 147.884 443.609C147.398 443.123 146.879 442.898 146.326 442.935C145.781 442.979 145.24 443.27 144.702 443.808C144.216 444.294 143.859 444.865 143.63 445.52C143.395 446.183 143.306 446.846 143.365 447.509L145.553 449.697L146.713 448.537ZM126.925 458.425C127.529 456.981 128.299 455.792 129.234 454.856C131.842 452.249 134.39 452.19 136.88 454.68L142.802 460.602L144.757 458.646L147.133 461.021L144.956 463.198L147.696 467.242L145.199 469.739L141.807 466.347L138.57 469.584L136.195 467.209L139.432 463.971L133.985 458.524C133.381 457.92 132.84 457.6 132.361 457.563C131.875 457.534 131.359 457.792 130.814 458.337C130.35 458.801 129.945 459.39 129.599 460.104L126.925 458.425ZM121.578 462.999L137.852 470.302L134.615 473.539L129.632 471.23C128.395 470.656 126.549 469.65 124.097 468.214L122.671 467.385L123.644 469.043C125.006 471.274 126.004 473.039 126.638 474.335L128.936 479.218L125.677 482.478L115.136 458.944L118.23 455.851L121.578 462.999ZM129.256 489.35L125.853 492.753L108.772 475.672L112.175 472.269L129.256 489.35ZM100.497 483.947L104.276 480.169L115.136 482.478L116.65 491.504L113.048 495.106L111.711 486.124L100.497 483.947ZM106.54 502.078C104.868 503.75 103.174 504.619 101.458 504.685C99.742 504.752 98.0994 504 96.5305 502.431L89.2716 495.172L92.0779 492.366L93.8678 493.383C93.8383 492.381 93.993 491.438 94.3318 490.554C94.6707 489.685 95.1863 488.904 95.8786 488.212C97.1013 486.989 98.3903 486.334 99.7456 486.245C101.094 486.164 102.302 486.658 103.37 487.726C104.607 488.963 105.053 490.447 104.706 492.178C104.353 493.917 103.241 495.721 101.37 497.592L99.9224 499.039L100.221 499.338C101.635 500.664 103.097 500.571 104.607 499.062C105.123 498.546 105.642 497.872 106.165 497.04C106.695 496.215 107.115 495.412 107.424 494.631L110.43 496.2C109.966 497.297 109.387 498.362 108.695 499.393C108.01 500.432 107.292 501.326 106.54 502.078ZM99.2264 496.023C100.191 495.058 100.777 494.141 100.983 493.272C101.182 492.41 100.987 491.685 100.397 491.096C99.9114 490.609 99.3921 490.385 98.8397 490.422C98.2946 490.466 97.7532 490.757 97.2155 491.294C96.7294 491.781 96.3721 492.351 96.1438 493.007C95.9081 493.67 95.8197 494.333 95.8786 494.996L98.0663 497.183L99.2264 496.023Z" fill="white"/>
<path d="M209.811 196.243C211.034 196.715 212.227 197.326 213.391 198.078C214.547 198.836 215.586 199.676 216.507 200.597C218.996 203.086 220.212 205.723 220.153 208.507C220.086 211.299 218.75 213.998 216.142 216.606C213.52 219.228 210.791 220.55 207.955 220.572C205.105 220.594 202.39 219.317 199.812 216.739C198.906 215.833 198.111 214.816 197.426 213.689C196.734 212.57 196.222 211.454 195.89 210.341L199.348 208.916C199.798 209.999 200.24 210.898 200.674 211.612C201.101 212.334 201.602 212.982 202.177 213.557C203.805 215.184 205.495 215.961 207.248 215.888C209.001 215.814 210.761 214.893 212.529 213.126C214.282 211.373 215.255 209.627 215.446 207.889C215.63 206.143 215.012 204.559 213.59 203.138C212.868 202.416 212.062 201.808 211.17 201.315L205.878 206.607L202.663 203.392L209.811 196.243ZM200.42 195.448C202.261 193.253 202.232 191.205 200.332 189.305C199.742 188.716 199.083 188.189 198.354 187.725C197.617 187.268 196.737 186.83 195.713 186.41L197.006 183.482C199.636 184.447 201.709 185.696 203.226 187.228C205.097 189.099 206.022 191.113 206 193.271C205.977 195.43 204.998 197.477 203.061 199.414C201.131 201.344 199.105 202.324 196.984 202.353C194.855 202.39 192.848 201.466 190.963 199.58C187.42 196.037 187.655 192.259 191.67 188.244L192.443 187.471L200.42 195.448ZM193.592 192.553C192.038 194.299 191.938 195.849 193.294 197.205C194.045 197.956 194.844 198.343 195.691 198.365C196.524 198.387 197.422 198.048 198.387 197.348L193.592 192.553ZM178.146 186.852C176.194 184.9 175.233 182.871 175.263 180.764C175.285 178.665 176.29 176.621 178.279 174.633C180.268 172.644 182.319 171.631 184.433 171.594C186.547 171.557 188.58 172.515 190.532 174.467C192.461 176.397 193.415 178.419 193.393 180.532C193.364 182.654 192.351 184.712 190.355 186.709C188.366 188.697 186.322 189.703 184.223 189.725C182.116 189.754 180.091 188.797 178.146 186.852ZM180.687 184.311C182.426 186.064 184.51 185.725 186.941 183.295C189.372 180.864 189.714 178.776 187.968 177.03C186.215 175.277 184.123 175.616 181.693 178.047C179.262 180.477 178.927 182.565 180.687 184.311ZM164.943 173.318C164.383 172.758 163.941 172.154 163.617 171.506C163.279 170.858 163.08 170.202 163.021 169.539L161.861 170.014L159.121 167.274L170.777 155.618C172.545 153.85 174.434 153.051 176.445 153.22C178.456 153.375 180.396 154.388 182.267 156.259C183.217 157.209 184.05 158.262 184.764 159.419C185.486 160.568 186.005 161.713 186.322 162.855L183.063 164.015C182.82 163.197 182.415 162.306 181.847 161.341C181.288 160.369 180.684 159.559 180.035 158.91C179.115 157.99 178.168 157.522 177.196 157.507C176.224 157.478 175.277 157.923 174.357 158.844L173.108 160.093C174.876 160.137 176.375 160.774 177.605 162.004C179.247 163.647 180.021 165.429 179.925 167.352C179.829 169.274 178.868 171.149 177.041 172.975C175.097 174.92 173.057 175.922 170.92 175.98C168.777 176.047 166.785 175.159 164.943 173.318ZM166.567 170.434C167.562 171.428 168.655 171.859 169.849 171.727C171.027 171.594 172.243 170.902 173.495 169.65C174.614 168.53 175.266 167.458 175.45 166.435C175.62 165.411 175.307 164.501 174.511 163.706C173.907 163.102 173.207 162.748 172.412 162.645C171.609 162.534 170.832 162.693 170.081 163.12L165.164 168.037C165.407 168.943 165.875 169.742 166.567 170.434ZM154.436 159.297C152.469 159.776 150.816 159.345 149.475 158.004C149.188 157.717 148.963 157.456 148.801 157.22C148.624 156.984 148.422 156.664 148.194 156.259L151.541 153.684C151.946 154.546 152.396 155.217 152.889 155.695C153.42 156.226 153.965 156.579 154.524 156.756C155.077 156.94 155.681 156.955 156.336 156.8L164.347 148.79L167.75 152.193L155.894 164.048L153.199 161.352L154.436 159.297ZM141.763 150.381C140.091 148.709 139.222 147.015 139.156 145.299C139.09 143.582 139.841 141.94 141.41 140.371L148.669 133.112L151.475 135.918L150.459 137.708C151.46 137.679 152.403 137.834 153.287 138.172C154.156 138.511 154.937 139.027 155.629 139.719C156.852 140.942 157.508 142.231 157.596 143.586C157.677 144.934 157.183 146.142 156.115 147.21C154.878 148.447 153.394 148.893 151.663 148.547C149.925 148.193 148.12 147.081 146.249 145.21L144.802 143.763L144.503 144.061C143.178 145.475 143.27 146.938 144.78 148.447C145.295 148.963 145.969 149.482 146.801 150.005C147.626 150.536 148.429 150.956 149.21 151.265L147.641 154.27C146.544 153.806 145.479 153.228 144.448 152.535C143.41 151.85 142.515 151.132 141.763 150.381ZM147.818 143.067C148.783 144.032 149.7 144.617 150.569 144.824C151.431 145.022 152.156 144.827 152.746 144.238C153.232 143.752 153.456 143.233 153.42 142.68C153.375 142.135 153.084 141.594 152.547 141.056C152.061 140.57 151.49 140.213 150.834 139.984C150.171 139.749 149.508 139.66 148.845 139.719L146.658 141.907L147.818 143.067ZM132.107 142.802C130.855 144.054 129.492 144.673 128.019 144.658C126.546 144.643 125.161 143.988 123.865 142.691C123.305 142.131 122.834 141.55 122.45 140.946C122.06 140.334 121.677 139.568 121.301 138.647L124.053 137.554C124.502 138.46 124.955 139.141 125.412 139.598C125.927 140.113 126.476 140.367 127.058 140.36C127.632 140.345 128.199 140.058 128.759 139.498L130.052 138.205L127.201 135.355L129.577 132.98L132.427 135.83L140.891 127.367C142.445 125.813 144.33 124.715 146.547 124.074L148.691 126.218L135.753 139.156L137.709 141.111L135.333 143.487L133.378 141.531L132.107 142.802ZM120.727 138.426L117.335 135.035L120.429 131.941L123.821 135.333L120.727 138.426ZM125.632 133.521L122.241 130.129L133.963 118.407L137.355 121.798L125.632 133.521ZM114.12 122.738C112.448 121.066 111.579 119.371 111.512 117.655C111.446 115.939 112.197 114.296 113.766 112.728L121.025 105.469L123.832 108.275L122.815 110.065C123.817 110.035 124.76 110.19 125.644 110.529C126.513 110.868 127.293 111.383 127.986 112.076C129.209 113.298 129.864 114.587 129.952 115.943C130.033 117.291 129.54 118.499 128.472 119.567C127.235 120.804 125.75 121.25 124.019 120.903C122.281 120.55 120.476 119.438 118.606 117.567L117.158 116.119L116.86 116.418C115.534 117.832 115.626 119.294 117.136 120.804C117.652 121.32 118.326 121.839 119.158 122.362C119.983 122.892 120.786 123.312 121.567 123.621L119.998 126.627C118.9 126.163 117.836 125.584 116.805 124.892C115.766 124.207 114.871 123.489 114.12 122.738ZM120.174 115.423C121.139 116.388 122.056 116.974 122.926 117.18C123.787 117.379 124.513 117.184 125.102 116.595C125.588 116.108 125.813 115.589 125.776 115.037C125.732 114.492 125.441 113.95 124.903 113.413C124.417 112.926 123.846 112.569 123.191 112.341C122.528 112.105 121.865 112.017 121.202 112.076L119.014 114.263L120.174 115.423Z" fill="white"/>
</g>
</svg>
