<svg width="100" height="116" viewBox="0 0 100 116" fill="none" xmlns="http://www.w3.org/2000/svg">
<circle cx="92.5" cy="37.5" r="7" fill="#B98B63" stroke="black"/>
<circle cx="92.5" cy="37.5" r="4" fill="#69370C" stroke="black"/>
<circle cx="7.5" cy="37.5" r="7" fill="#B98B63" stroke="black"/>
<circle cx="7.5" cy="37.5" r="4" fill="#69370C" stroke="black"/>
<rect x="87.9558" y="9.63123" width="2" height="8" rx="1" transform="rotate(70 87.9558 9.63123)" fill="#6B4636"/>
<rect x="74.6123" y="9.95752" width="3" height="12" rx="1.5" transform="rotate(-5 74.6123 9.95752)" fill="#6B4636"/>
<path d="M82.3192 3.69967C82.9027 2.44832 84.3902 1.90693 85.6415 2.49044C86.8929 3.07396 87.4342 4.56141 86.8507 5.81276L78.1876 24.3908C77.6041 25.6422 76.1167 26.1836 74.8653 25.6C73.614 25.0165 73.0726 23.5291 73.6561 22.2777L82.3192 3.69967Z" fill="#6B4636"/>
<rect x="13.8191" y="16.2739" width="3" height="12" rx="1.5" transform="rotate(-61.049 13.8191 16.2739)" fill="#6B4636"/>
<rect x="21.0005" y="5.02307" width="2" height="8" rx="1" transform="rotate(13.951 21.0005 5.02307)" fill="#6B4636"/>
<path d="M12.9323 6.38614C12.2201 5.20325 12.6017 3.66703 13.7846 2.9549C14.9675 2.24276 16.5038 2.62439 17.2159 3.80728L27.7892 21.3702C28.5013 22.5531 28.1197 24.0893 26.9368 24.8014C25.7539 25.5135 24.2177 25.1319 23.5056 23.949L12.9323 6.38614Z" fill="#6B4636"/>
<mask id="mask0_1301_67" style="mask-type:alpha" maskUnits="userSpaceOnUse" x="-1" y="16" width="101" height="101">
<circle cx="49.9998" cy="66.0001" r="49.5" fill="#897171" stroke="black"/>
</mask>
<g mask="url(#mask0_1301_67)">
<rect x="-40.0002" y="3.00012" width="188" height="111" fill="#B98B63"/>
<path d="M109.5 118C109.5 145.257 82.9499 167.5 49.9998 167.5C17.0496 167.5 -9.50024 145.257 -9.50024 118C-9.50024 90.7435 17.0496 68.5001 49.9998 68.5001C82.9499 68.5001 109.5 90.7435 109.5 118Z" fill="#E1BEA5" stroke="black"/>
<line x1="50.5" y1="82" x2="50.5" y2="89" stroke="black"/>
<circle cx="50" cy="66" r="49.5" stroke="black"/>
<line x1="49.5" y1="89" x2="49.5" y2="82" stroke="black"/>
<path d="M40 95.5C41.2646 95.5 42.5149 95.3131 43.6785 94.9516C44.8423 94.5901 45.8924 94.0623 46.7711 93.4033C47.6497 92.7443 48.3365 91.9696 48.8011 91.1284C49.2651 90.2882 49.5 89.3956 49.5 88.5" stroke="black" stroke-linecap="round"/>
<path d="M60 95.5C58.7354 95.5 57.4851 95.3131 56.3215 94.9516C55.1577 94.5901 54.1076 94.0623 53.2289 93.4033C52.3503 92.7443 51.6635 91.9696 51.1989 91.1284C50.7349 90.2882 50.5 89.3956 50.5 88.5" stroke="black" stroke-linecap="round"/>
<circle cx="64.9998" cy="58.0001" r="5" fill="black"/>
<circle cx="34.9998" cy="58.0001" r="5" fill="black"/>
</g>
<path d="M59.5 78.5C59.5 80.3784 58.486 82.1171 56.7711 83.4033C55.056 84.6896 52.6637 85.5 50 85.5C47.3363 85.5 44.944 84.6896 43.2289 83.4033C41.514 82.1171 40.5 80.3784 40.5 78.5C40.5 76.6216 41.514 74.8829 43.2289 73.5967C44.944 72.3104 47.3363 71.5 50 71.5C52.6637 71.5 55.056 72.3104 56.7711 73.5967C58.486 74.8829 59.5 76.6216 59.5 78.5Z" fill="#D23D3D" stroke="black"/>
</svg>
